<svg id="Layer_1" data-name="Layer 1" xmlns="http://www.w3.org/2000/svg" viewBox="0 0 1245.3088 188"><title>avtahadotinfo</title><polygon points="131.499 17 176.58 17 225.805 102.26 275.03 17 320.111 17 225.805 180.343 131.499 17" fill="#fff"/><path d="M317.5132,18.5,225.805,177.3433,134.0967,18.5h41.6174l47.4928,82.26,2.5981,4.5,2.598-4.5L275.8958,18.5h41.6174m5.1961-3H274.1638L225.805,99.26,177.4461,15.5H128.9006L225.805,183.3433Z"/><polygon points="383.267 181.637 383.267 54.865 330.877 54.865 330.877 16.47 474.699 16.47 474.699 54.865 421.662 54.865 421.662 181.637 383.267 181.637" fill="#fff"/><path d="M473.2,17.97V53.3651H420.1624V180.1369H384.7675V53.3651h-52.39V17.97H473.2m3-3H329.3771V56.3651h52.39V183.1369H423.162V56.3651h53.0372V14.97Z"/><polygon points="588.13 180 538.904 94.74 489.679 180 444.598 180 538.904 16.657 633.211 180 588.13 180" fill="#fff"/><path d="M538.9044,19.6567,630.6126,178.5H588.9953L541.5025,96.24l-2.5981-4.5-2.598,4.5L488.8136,178.5H447.1962L538.9044,19.6567m0-6L442,181.5h48.5456l48.3588-83.76,48.3589,83.76h48.5455Z"/><polygon points="762.268 181.637 762.268 118.574 687.662 118.574 687.662 181.637 649.267 181.637 649.267 17.117 687.662 17.117 687.662 80.18 762.268 80.18 762.268 17.117 800.662 17.117 800.662 181.637 762.268 181.637" fill="#fff"/><path d="M799.1623,18.617v161.52H763.7675V117.0744H686.1624v63.0625H650.7675V18.617h35.3949V81.68h77.6051V18.617h35.3948m3-3H760.7675V78.68H689.1624V15.617H647.7675v167.52h41.3949V120.0744h71.6051v63.0625h41.3948Z"/><polygon points="960.129 182 910.904 96.74 861.679 182 816.598 182 910.904 18.657 1005.211 182 960.129 182" fill="#fff"/><path d="M910.9045,21.6567,1002.6126,180.5H960.9953L913.5026,98.24l-2.598-4.5-2.5981,4.5L860.8136,180.5H819.1961L910.9045,21.6567m0-6L814,183.5h48.5456l48.3589-83.76,48.3588,83.76h48.5455Z"/><rect x="1026.3088" y="158" width="28" height="27" fill="#fff" stroke="#000" stroke-miterlimit="10" stroke-width="3"/><path d="M1243.8088,94a92.5,92.5,0,1,1-92.5-92.5,92.5,92.5,0,0,1,92.5,92.5" fill="#4594ff" stroke="#000" stroke-miterlimit="10" stroke-width="3"/><rect x="1137.488" y="58.2614" width="26.9187" height="108.9365" fill="#fff" stroke="#000" stroke-miterlimit="10" stroke-width="3"/><rect x="1137.488" y="21.4716" width="26.9187" height="26.9479" fill="#fff" stroke="#000" stroke-miterlimit="10" stroke-width="3"/><polygon points="146.13 180 96.904 94.74 47.679 180 2.598 180 96.904 16.657 191.211 180 146.13 180" fill="#fff"/><path d="M96.9044,19.6567,188.6126,178.5H146.9953L99.5025,96.24l-2.5981-4.5-2.598,4.5L46.8136,178.5H5.1962L96.9044,19.6567m0-6L0,181.5H48.5456L96.9044,97.74l48.3589,83.76h48.5455Z"/></svg>