<?xml version="1.0" encoding="utf-8"?>
<!-- Generator: Adobe Illustrator 24.1.2, SVG Export Plug-In . SVG Version: 6.00 Build 0)  -->
<svg version="1.1" id="Layer_1" xmlns="http://www.w3.org/2000/svg" xmlns:xlink="http://www.w3.org/1999/xlink" x="0px" y="0px"
	 viewBox="0 0 1007.8 188" style="enable-background:new 0 0 1007.8 188;" xml:space="preserve">
<style type="text/css">
	.st0{fill:#FFFFFF;}
	.st1{fill:#4594FF;stroke:#000000;stroke-width:3;stroke-miterlimit:10;}
</style>
<polygon class="st0" points="131.5,16.5 176.6,16.5 225.8,101.8 275,16.5 320.1,16.5 225.8,179.8 "/>
<path d="M317.5,18l-91.7,158.8L134.1,18h41.6l47.5,82.3l2.6,4.5l2.6-4.5L275.9,18H317.5 M322.7,15h-48.6l-48.4,83.8L177.4,15h-48.6
	l96.9,167.8L322.7,15z"/>
<polygon class="st0" points="383.3,181.1 383.3,54.4 330.9,54.4 330.9,16 474.7,16 474.7,54.4 421.7,54.4 421.7,181.1 "/>
<path d="M473.2,17.5v35.4h-53v126.7h-35.4V52.9h-52.4V17.5H473.2 M476.2,14.5H329.4v41.4h52.4v126.7h41.4V55.9h53L476.2,14.5
	L476.2,14.5z"/>
<polygon class="st0" points="588.1,179.5 538.9,94.2 489.7,179.5 444.6,179.5 538.9,16.2 633.2,179.5 "/>
<path d="M538.9,19.2L630.6,178H589l-47.5-82.3l-2.6-4.5l-2.6,4.5L488.8,178h-41.6L538.9,19.2 M538.9,13.2L442,181h48.5l48.4-83.8
	l48.4,83.8h48.5L538.9,13.2z"/>
<polygon class="st0" points="762.3,181.1 762.3,118.1 687.7,118.1 687.7,181.1 649.3,181.1 649.3,16.6 687.7,16.6 687.7,79.7 
	762.3,79.7 762.3,16.6 800.7,16.6 800.7,181.1 "/>
<path d="M799.2,18.1v161.5h-35.4v-63.1h-77.6v63.1h-35.4V18.1h35.4v63.1h77.6V18.1H799.2 M802.2,15.1h-41.4v63.1h-71.6V15.1h-41.4
	v167.5h41.4v-63.1h71.6v63.1h41.4V15.1z"/>
<polygon class="st0" points="960.1,181.5 910.9,96.2 861.7,181.5 816.6,181.5 910.9,18.2 1005.2,181.5 "/>
<path d="M910.9,21.2l91.7,158.8H961l-47.5-82.3l-2.6-4.5l-2.6,4.5L860.8,180h-41.6L910.9,21.2 M910.9,15.2L814,183h48.5l48.4-83.8
	l48.4,83.8h48.5L910.9,15.2z"/>
<path class="st1" d="M1003.4,94c0,51.1-41.4,92.5-92.5,92.5s-92.5-41.4-92.5-92.5s41.4-92.5,92.5-92.5S1003.4,42.9,1003.4,94"/>
<polygon class="st0" points="146.1,179.5 96.9,94.2 47.7,179.5 2.6,179.5 96.9,16.2 191.2,179.5 "/>
<path d="M96.9,19.2L188.6,178H147L99.5,95.7l-2.6-4.5l-2.6,4.5L46.8,178H5.2L96.9,19.2 M96.9,13.2L0,181h48.5l48.4-83.8l48.4,83.8
	h48.6L96.9,13.2z"/>
<polygon class="st0" points="960.1,181.8 910.9,96.5 861.7,181.8 816.6,181.8 910.9,18.4 1005.2,181.8 "/>
<path d="M910.9,21.4l91.7,158.8H961L913.5,98l-2.6-4.5l-2.6,4.5l-47.5,82.3h-41.6L910.9,21.4 M910.9,15.4L814,183.3h48.5l48.4-83.8
	l48.4,83.8h48.6L910.9,15.4z"/>
<polygon class="st0" points="933.5,57.4 884.2,142.7 982.7,142.7 1005.2,181.8 816.6,181.7 911,18.4 "/>
<path d="M819.2,180.2L911,21.4l20.8,36l-47.5,82.2l-2.6,4.5l5.2,0l95,0.1l20.8,36L819.2,180.2 M814,183.2l193.8,0.1l-24.3-42.1
	l-96.7,0l48.4-83.7L911,15.4L814,183.2z"/>
</svg>
