<svg id="Layer_1" data-name="Layer 1" xmlns="http://www.w3.org/2000/svg" viewBox="0 0 1244.62 188"><defs><style>.cls-1,.cls-2{fill:#fff;}.cls-2,.cls-3{stroke:#000;stroke-miterlimit:10;stroke-width:3px;}.cls-3{fill:#4594ff;}</style></defs><polygon class="cls-1" points="131.5 17 176.58 17 225.81 102.26 275.03 17 320.11 17 225.81 180.34 131.5 17"/><path d="M317.51,18.5,225.8,177.34,134.1,18.5h41.61l47.5,82.26,2.59,4.5,2.6-4.5L275.9,18.5h41.61m5.2-3H274.16L225.8,99.26,177.45,15.5H128.9l96.9,167.84Z"/><polygon class="cls-1" points="383.27 181.64 383.27 54.87 330.88 54.87 330.88 16.47 474.7 16.47 474.7 54.87 421.66 54.87 421.66 181.64 383.27 181.64"/><path d="M473.2,18v35.4h-53V180.14H384.77V53.37H332.38V18H473.2m3-3H329.38v41.4h52.39V183.14h41.39V56.37h53V15Z"/><polygon class="cls-1" points="588.13 180 538.9 94.74 489.68 180 444.6 180 538.9 16.66 633.21 180 588.13 180"/><path d="M538.9,19.66,630.61,178.5H589L541.5,96.24l-2.6-4.5-2.59,4.5-47.5,82.26H447.2L538.9,19.66m0-6L442,181.5h48.55L538.9,97.74l48.36,83.76h48.55Z"/><polygon class="cls-1" points="762.27 181.64 762.27 118.57 687.66 118.57 687.66 181.64 649.27 181.64 649.27 17.12 687.66 17.12 687.66 80.18 762.27 80.18 762.27 17.12 800.66 17.12 800.66 181.64 762.27 181.64"/><path d="M799.16,18.62V180.14H763.77V117.07H686.16v63.07H650.77V18.62h35.39V81.68h77.61V18.62h35.39m3-3H760.77V78.68H689.16V15.62H647.77V183.14h41.39V120.07h71.61v63.07h41.39Z"/><polygon class="cls-1" points="960.13 182 910.9 96.74 861.68 182 816.6 182 910.9 18.66 1005.21 182 960.13 182"/><path d="M910.9,21.66l91.71,158.84H961L913.5,98.24l-2.6-4.5-2.59,4.5-47.5,82.26H819.2L910.9,21.66m0-6L814,183.5h48.55L910.9,99.74l48.36,83.76h48.55Z"/><rect class="cls-2" x="1014.81" y="156.14" width="28" height="27"/><path class="cls-3" d="M1240.21,94a92.5,92.5,0,1,1-92.5-92.5,92.5,92.5,0,0,1,92.5,92.5"/><polygon class="cls-1" points="146.13 180 96.9 94.74 47.68 180 2.6 180 96.9 16.66 191.21 180 146.13 180"/><path d="M96.9,19.66,188.61,178.5H147L99.5,96.24l-2.6-4.5-2.59,4.5L46.81,178.5H5.2L96.9,19.66m0-6L0,181.5H48.55L96.9,97.74l48.36,83.76h48.55Z"/><polygon class="cls-1" points="1196.94 180.75 1147.71 95.49 1098.49 180.75 1053.41 180.75 1147.71 17.41 1242.02 180.75 1196.94 180.75"/><path d="M1147.71,20.41l91.71,158.84H1197.8L1150.31,97l-2.6-4.5-2.59,4.5-47.5,82.26H1056l91.7-158.84m0-6-96.9,167.84h48.54l48.36-83.76,48.36,83.76h48.55Z"/></svg>