<?xml version="1.0" encoding="utf-8"?>
<!-- Generator: Adobe Illustrator 24.1.2, SVG Export Plug-In . SVG Version: 6.00 Build 0)  -->
<svg version="1.1" id="Layer_1" xmlns="http://www.w3.org/2000/svg" xmlns:xlink="http://www.w3.org/1999/xlink" x="0px" y="0px"
	 viewBox="0 0 1245.3 188" style="enable-background:new 0 0 1245.3 188;" xml:space="preserve">
<style type="text/css">
	.st0{fill:#FFFFFF;}
	.st1{fill:#FFFFFF;stroke:#000000;stroke-width:3;stroke-miterlimit:10;}
	.st2{fill:#4594FF;stroke:#000000;stroke-width:3;stroke-miterlimit:10;}
</style>
<polygon class="st0" points="131.5,17 176.6,17 225.8,102.3 275,17 320.1,17 225.8,180.3 "/>
<path d="M317.5,18.5l-91.7,158.8L134.1,18.5h41.6l47.5,82.3l2.6,4.5l2.6-4.5l47.5-82.3H317.5 M322.7,15.5h-48.5l-48.4,83.8
	l-48.4-83.8h-48.5l96.9,167.8L322.7,15.5z"/>
<polygon class="st0" points="383.3,181.6 383.3,54.9 330.9,54.9 330.9,16.5 474.7,16.5 474.7,54.9 421.7,54.9 421.7,181.6 "/>
<path d="M473.2,18v35.4h-53v126.8h-35.4V53.4h-52.4V18H473.2 M476.2,15H329.4v41.4h52.4v126.8h41.4V56.4h53L476.2,15L476.2,15z"/>
<polygon class="st0" points="588.1,180 538.9,94.7 489.7,180 444.6,180 538.9,16.7 633.2,180 "/>
<path d="M538.9,19.7l91.7,158.8H589l-47.5-82.3l-2.6-4.5l-2.6,4.5l-47.5,82.3h-41.6L538.9,19.7 M538.9,13.7L442,181.5h48.5
	l48.4-83.8l48.4,83.8h48.5L538.9,13.7z"/>
<polygon class="st0" points="762.3,181.6 762.3,118.6 687.7,118.6 687.7,181.6 649.3,181.6 649.3,17.1 687.7,17.1 687.7,80.2 
	762.3,80.2 762.3,17.1 800.7,17.1 800.7,181.6 "/>
<path d="M799.2,18.6v161.5h-35.4v-63.1h-77.6v63.1h-35.4V18.6h35.4v63.1h77.6V18.6H799.2 M802.2,15.6h-41.4v63.1h-71.6V15.6h-41.4
	v167.5h41.4v-63.1h71.6v63.1h41.4V15.6z"/>
<polygon class="st0" points="960.1,182 910.9,96.7 861.7,182 816.6,182 910.9,18.7 1005.2,182 "/>
<path d="M910.9,21.7l91.7,158.8H961l-47.5-82.3l-2.6-4.5l-2.6,4.5l-47.5,82.3h-41.6L910.9,21.7 M910.9,15.7L814,183.5h48.5
	l48.4-83.8l48.4,83.8h48.5L910.9,15.7z"/>
<rect x="1026.3" y="158" class="st1" width="28" height="27"/>
<path class="st2" d="M1243.8,94c0,51.1-41.4,92.5-92.5,92.5s-92.5-41.4-92.5-92.5s41.4-92.5,92.5-92.5S1243.8,42.9,1243.8,94"/>
<rect x="1137.5" y="58.3" class="st1" width="26.9" height="108.9"/>
<rect x="1137.5" y="21.5" class="st1" width="26.9" height="26.9"/>
<polygon class="st0" points="146.1,180 96.9,94.7 47.7,180 2.6,180 96.9,16.7 191.2,180 "/>
<path d="M96.9,19.7l91.7,158.8H147L99.5,96.2l-2.6-4.5l-2.6,4.5l-47.5,82.3H5.2L96.9,19.7 M96.9,13.7L0,181.5h48.5l48.4-83.8
	l48.4,83.8h48.5L96.9,13.7z"/>
</svg>
