<?xml version="1.0" encoding="utf-8"?>
<!-- Generator: Adobe Illustrator 24.1.2, SVG Export Plug-In . SVG Version: 6.00 Build 0)  -->
<svg version="1.1" id="Layer_1" xmlns="http://www.w3.org/2000/svg" xmlns:xlink="http://www.w3.org/1999/xlink" x="0px" y="0px"
	 viewBox="0 0 1007.8 188" style="enable-background:new 0 0 1007.8 188;" xml:space="preserve">
<style type="text/css">
	.st0{fill:#FFFFFF;}
	.st1{fill:#4594FF;stroke:#000000;stroke-width:3;stroke-miterlimit:10;}
</style>
<polygon class="st0" points="131.5,16 176.6,16 225.8,101.3 275,16 320.1,16 225.8,179.3 "/>
<path d="M317.5,17.5l-91.7,158.8L134.1,17.5h41.6l47.5,82.3l2.6,4.5l2.6-4.5l47.5-82.3H317.5 M322.7,14.5h-48.6l-48.4,83.8
	l-48.4-83.8h-48.6l96.9,167.8L322.7,14.5z"/>
<polygon class="st0" points="383.3,180.6 383.3,53.9 330.9,53.9 330.9,15.5 474.7,15.5 474.7,53.9 421.7,53.9 421.7,180.6 "/>
<path d="M473.2,17v35.4h-53v126.7h-35.4V52.4h-52.4V17H473.2 M476.2,14H329.4v41.4h52.4v126.7h41.4V55.4h53L476.2,14L476.2,14z"/>
<polygon class="st0" points="588.1,179 538.9,93.7 489.7,179 444.6,179 538.9,15.7 633.2,179 "/>
<path d="M538.9,18.7l91.7,158.8H589l-47.5-82.3l-2.6-4.5l-2.6,4.5l-47.5,82.3h-41.6L538.9,18.7 M538.9,12.7L442,180.5h48.5
	l48.4-83.8l48.4,83.8h48.5L538.9,12.7z"/>
<polygon class="st0" points="762.3,180.6 762.3,117.6 687.7,117.6 687.7,180.6 649.3,180.6 649.3,16.1 687.7,16.1 687.7,79.2 
	762.3,79.2 762.3,16.1 800.7,16.1 800.7,180.6 "/>
<path d="M799.2,17.6v161.5h-35.4v-63.1h-77.6v63.1h-35.4V17.6h35.4v63.1h77.6V17.6H799.2 M802.2,14.6h-41.4v63.1h-71.6V14.6h-41.4
	v167.5h41.4v-63.1h71.6v63.1h41.4V14.6z"/>
<polygon class="st0" points="960.1,181 910.9,95.7 861.7,181 816.6,181 910.9,17.7 1005.2,181 "/>
<path d="M910.9,20.7l91.7,158.8H961l-47.5-82.3l-2.6-4.5l-2.6,4.5l-47.5,82.3h-41.6L910.9,20.7 M910.9,14.7L814,182.5h48.5
	l48.4-83.8l48.4,83.8h48.5L910.9,14.7z"/>
<path class="st1" d="M1003.4,94c0,51.1-41.4,92.5-92.5,92.5s-92.5-41.4-92.5-92.5s41.4-92.5,92.5-92.5S1003.4,42.9,1003.4,94"/>
<polygon class="st0" points="146.1,179 96.9,93.7 47.7,179 2.6,179 96.9,15.7 191.2,179 "/>
<path d="M96.9,18.7l91.7,158.8H147L99.5,95.2l-2.6-4.5l-2.6,4.5l-47.5,82.3H5.2L96.9,18.7 M96.9,12.7L0,180.5h48.5l48.4-83.8
	l48.4,83.8h48.6L96.9,12.7z"/>
<polygon class="st0" points="960.1,180.8 910.9,95.5 861.7,180.8 816.6,180.8 910.9,17.4 1005.2,180.8 "/>
<path d="M910.9,20.4l91.7,158.8H961L913.5,97l-2.6-4.5l-2.6,4.5l-47.5,82.3h-41.6L910.9,20.4 M910.9,14.4L814,182.3h48.5l48.4-83.8
	l48.4,83.8h48.6L910.9,14.4z"/>
</svg>
