<svg id="Layer_1" data-name="Layer 1" xmlns="http://www.w3.org/2000/svg" viewBox="0 0 889 529"><path d="M1908,623h-58.69l-74.52,107H1908a12,12,0,0,0,12-12V635A12,12,0,0,0,1908,623Z" transform="translate(-1031 -551)"/><path d="M1705,623v-4l-68-68H1541l-68,68v4h-42.17l-74.52,107H1488l53,53h96.1l53-53h43.67l74.51-107Zm-23.31,82.15-54.1,54.1h-76.5L1497,705.15v-76.5l54.09-54.09h76.5l54.1,54.09Z" transform="translate(-1031 -551)"/><path d="M1300.17,623l-56.92-72h-141.5L1031,640.5l29,36.69V1080h226V730h29.24l74.51-107Zm-76.28,82H1121.3L1070,640.11l51.3-64.89h102.59l51.3,64.89Z" transform="translate(-1031 -551)"/></svg>