<svg id="Layer_1" data-name="Layer 1" xmlns="http://www.w3.org/2000/svg" width="13.21" height="24" viewBox="0 0 13.21 24"><path d="M13.77,13.56V4.13a1.88,1.88,0,0,0-1.88-1.88h0A1.88,1.88,0,0,0,10,4.13v9.43a3.58,3.58,0,1,0,3.75,0ZM13,8.35a1.09,1.09,0,0,1-1.09,1.09h0A1.09,1.09,0,0,1,10.8,8.35V4.48a1.09,1.09,0,0,1,1.09-1.09h0A1.09,1.09,0,0,1,13,4.48Z" transform="translate(-5.31)"/><path d="M18,0H5.82a.51.51,0,0,0-.51.5v23a.51.51,0,0,0,.51.5H18a.5.5,0,0,0,.5-.5V.5A.5.5,0,0,0,18,0ZM13.24,23.31h-2.7a.51.51,0,0,1,0-1h2.7a.51.51,0,0,1,0,1Zm4.33-2.4a.51.51,0,0,1-.5.51H6.72a.5.5,0,0,1-.5-.51V1.53a.5.5,0,0,1,.5-.5H17.07a.5.5,0,0,1,.5.5Z" transform="translate(-5.31)"/></svg>