<svg id="Layer_1" data-name="Layer 1" xmlns="http://www.w3.org/2000/svg" viewBox="0 0 1038 686.84"><path d="M1026,94.93H374.13V12a12,12,0,0,0-12-12H12A12,12,0,0,0,0,12V674.84a12,12,0,0,0,12,12H362.13a12,12,0,0,0,12-12v-418H1026a12,12,0,0,0,12-12V106.93A12,12,0,0,0,1026,94.93ZM310,617a12,12,0,0,1-12,12H71.55a12,12,0,0,1-12-12V225.35c31.29,18.68,75.67,38.07,124.9,38.07C234,263.42,278.68,243.76,310,225ZM116.06,191.21a68.39,68.39,0,1,1,68.39,68.39A68.39,68.39,0,0,1,116.06,191.21ZM310,157.47C278.68,138.67,234,119,184.45,119c-49.23,0-93.61,19.39-124.9,38.08V94a12,12,0,0,1,12-12H298a12,12,0,0,1,12,12ZM461.55,123,392,192.55V123ZM421.1,229l106-106h97.76L519,229Zm163.2,0L690,123H796.09L690.23,229Zm171.23,0,105.7-106H964.09L858.23,229Zm168,0L1011,141.28V229Z"/><path d="M231.32,191.6a48.15,48.15,0,0,0-48.15-48.15,49,49,0,0,0-6.45.44,23.51,23.51,0,1,1-37.11,27.16,48.16,48.16,0,1,0,91.71,20.55Z"/></svg>