<svg id="Layer_1" data-name="Layer 1" xmlns="http://www.w3.org/2000/svg" width="24" height="18" viewBox="0 0 24 18"><path d="M24,2.11,23.29.24A.37.37,0,0,0,22.82,0L12.2,4h-.35a11.38,11.38,0,0,0-1.54.1V2.35A.39.39,0,0,0,9.91,2H5a.39.39,0,0,0-.4.39v3.7A18.84,18.84,0,0,0,0,9.62a21.83,21.83,0,0,0,4.62,3.54V17.6A.4.4,0,0,0,5,18H9.91a.4.4,0,0,0,.4-.4V15.18a11.39,11.39,0,0,0,1.54.11c6.55,0,11.85-5.67,11.85-5.67a19.72,19.72,0,0,0-6.64-4.56l6.7-2.49A.36.36,0,0,0,24,2.11ZM13.65,3.8l-.1.28L13.05,4ZM11.39,7.87a1,1,0,0,1-1,1h0V7.56l.88-.32a1.07,1.07,0,0,1,.2.63Zm-.05-1.09.48-1.47h0a4.45,4.45,0,0,1,1.25.18l-.24.72Zm4.78,2.81a4.29,4.29,0,0,1-5.81,4V11.9a2.76,2.76,0,0,0,3.84-.75,2.79,2.79,0,0,0-.74-3.86,2.74,2.74,0,0,0-1.16-.44l2.05-.77A4.25,4.25,0,0,1,16.12,9.6Zm.37-4.76c-.39-.14-.78-.27-1.19-.38L15.77,3l1.49-.55Zm3.63-1.31-1.52.57.78-2.42,1.53-.57Zm2.71-1-.58.21.49-1.51.3.83A.36.36,0,0,1,22.83,2.52Z"/></svg>