<svg id="Layer_1" data-name="Layer 1" xmlns="http://www.w3.org/2000/svg" viewBox="0 0 1038 686.84"><defs><style>.cls-1{fill:#fff;}.cls-2{fill:#4594ff;stroke:#000;stroke-miterlimit:10;stroke-width:3px;}</style></defs><path d="M703.45,356C545.74,356,417.9,475.56,417.9,476.2S545.74,596.4,703.45,596.4,989,476.84,989,476.2,861.15,356,703.45,356Zm1,234A113.84,113.84,0,0,1,589.61,475.21c.53-61.81,51-112.32,112.85-112.85A113.84,113.84,0,0,1,817.28,477.19C816.76,539,766.25,589.51,704.44,590Z"/><path d="M701.31,396.69h0a5.19,5.19,0,0,0-4.27,8.13c8.83,13.13,9.94,31.86-3.41,49.87a5.26,5.26,0,0,1-1.11,1.1c-22.47,16.59-46.24,10.68-58.58-4.79a5.2,5.2,0,0,0-9,1.58c-7.12,22.41-4.67,49.08,12.35,75.28a45.09,45.09,0,0,0,13.48,13.4c63.8,40.85,130.72-4,130.72-64.42A80.15,80.15,0,0,0,701.31,396.69Z"/><path d="M1026,94.93H387A12.91,12.91,0,0,1,374.13,82V40.68A40.8,40.8,0,0,0,333.45,0H40.68A40.8,40.8,0,0,0,0,40.68V646.15a40.81,40.81,0,0,0,40.68,40.69H333.45a40.81,40.81,0,0,0,40.68-40.69V269.77a12.9,12.9,0,0,1,12.9-12.9h639a12,12,0,0,0,12-12V106.93A12,12,0,0,0,1026,94.93ZM461.55,123,392,192.55v-59A10.57,10.57,0,0,1,402.57,123ZM421.1,229l106-106h97.76L519,229Zm163.2,0L690,123H796.09L690.23,229Zm171.23,0,105.7-106H964.09L858.23,229Zm168,0L1011,141.28v72.05A15.66,15.66,0,0,1,995.33,229Z"/><polygon class="cls-1" points="264.17 319 192.6 194.92 121.03 319 55.43 319 192.6 81.46 329.77 319 264.17 319"/><path d="M192.6,85.83,326,316.82H265.48L196.38,197.1l-3.78-6.54-3.78,6.54L119.73,316.82H59.21l133.39-231m0-8.73L51.65,321.18H122.2l70.4-121.89L263,321.18h70.55Z"/><path class="cls-2" d="M327.15,192.45A134.55,134.55,0,1,1,192.6,57.9,134.52,134.52,0,0,1,327.15,192.45"/><polygon class="cls-1" points="264.17 318.71 192.6 194.63 121.03 318.71 55.43 318.71 192.6 81.03 329.77 318.71 264.17 318.71"/><path d="M192.6,85.39,326,316.38H265.48l-69.1-119.57-3.78-6.54-3.78,6.54L119.73,316.53H59.21L192.6,85.39m0-8.73L51.65,320.89H122.2L192.6,199,263,320.89h70.7Z"/></svg>