<svg id="Layer_1" data-name="Layer 1" xmlns="http://www.w3.org/2000/svg" viewBox="0 0 734.92 617.25"><defs><style>.cls-1{fill:#4594ff;}.cls-1,.cls-2{stroke:#000;stroke-miterlimit:10;stroke-width:7px;}.cls-2{fill:#fff;}</style></defs><path class="cls-1" d="M667.64,308.63c0,168.56-136.57,305.12-305.13,305.12S57.38,477.19,57.38,308.63,194,3.5,362.51,3.5,667.64,140.06,667.64,308.63"/><path class="cls-2" d="M730.74,81.48,709.85,25a11,11,0,0,0-14.08-6.48L373.55,137.59c-3.52-.1-7.05-.16-10.6-.16a365.88,365.88,0,0,0-46.75,3V88.94a12,12,0,0,0-12-12H155.64a12,12,0,0,0-12,12v111.7C58.41,248.61,3.5,306.69,3.5,308.59c0,0,54.91,58.4,140.14,107V549.75a12,12,0,0,0,12,12H304.2a12,12,0,0,0,12-12V476.66a360.46,360.46,0,0,0,46.75,3.1c198.52,0,359.45-171.17,359.45-171.17,0-2.33-82.18-88.72-201.52-137.85L724.26,95.56A11,11,0,0,0,730.74,81.48ZM417.35,132.59l-2.78,8.54q-7.59-1.08-15.28-1.86Zm-68.26,123a31.78,31.78,0,0,1-31.78,31.79c-.38,0-.74,0-1.11,0v-41l26.54-9.81A31.56,31.56,0,0,1,349.09,255.61Zm-1.75-32.89,14.52-44.53H363a129.68,129.68,0,0,1,37.71,5.58l-7.14,21.89Zm145.21,85.06A129.66,129.66,0,0,1,316.2,428.68V377.51a84,84,0,1,0,58.73-152.82l62.38-23.06A129.44,129.44,0,0,1,492.55,307.78Zm11-143.82c-11.68-4.31-23.68-8.22-35.95-11.65l14.2-43.53L527,92.07Zm110.23-39.72-46.18,17.07,23.83-73.06L637.6,51.18ZM695.9,93.87l-17.7,6.55,14.9-45.7,9.28,25.08A11,11,0,0,1,695.9,93.87Z"/></svg>