<svg id="Layer_1" data-name="Layer 1" xmlns="http://www.w3.org/2000/svg" width="24" height="18.56" viewBox="0 0 24 18.56"><path d="M14.68,0a9.33,9.33,0,0,0-8,4.52,17.23,17.23,0,0,0-2.4-3.46S0,5.54,0,11.47C0,15.1,1.91,18,4.27,18a4.06,4.06,0,0,0,3.42-2.62A9.3,9.3,0,1,0,14.68,0ZM3.84,16.69l-.22,0-.11,0-.11,0a2.38,2.38,0,0,1-.81-.41A3.42,3.42,0,0,1,2,15.58a3.76,3.76,0,0,1-.46-.76A5,5,0,0,1,1,13.15a4.63,4.63,0,0,1,.12-1.7c.08.28.14.55.21.81s.15.53.22.78a10.41,10.41,0,0,0,.57,1.47A5.24,5.24,0,0,0,3,15.8a3.93,3.93,0,0,0,.57.5,2.71,2.71,0,0,0,.73.33A1.49,1.49,0,0,1,3.84,16.69ZM14.68,17a7.8,7.8,0,0,1-6.39-3.31,9.49,9.49,0,0,0,.26-2.24A14.05,14.05,0,0,0,7.5,6.29,7.77,7.77,0,1,1,14.68,17Z"/><path d="M15.79,9.05V3.14a.45.45,0,0,0-.45-.44H14a.44.44,0,0,0-.44.44V9.76a.39.39,0,0,0,.13.33l3.78,3.76a.43.43,0,0,0,.63,0l.94-.93a.45.45,0,0,0,0-.63Z"/></svg>