<svg id="Layer_1" data-name="Layer 1" xmlns="http://www.w3.org/2000/svg" width="23.99" height="23.99" viewBox="0 0 23.99 23.99"><path d="M5.55,8l.72-2.16h5.28L12.28,8m-.73,2.4a.72.72,0,0,1-.72-.72h0a.73.73,0,1,1,.72.72h0m-5.28,0a.72.72,0,0,1-.72-.72h0a.72.72,0,1,1,.72.72h0m6-4.8a.73.73,0,0,0-.69-.48H6.27a.71.71,0,0,0-.68.48l-1,2.88v3.85a.48.48,0,0,0,.48.48h.48A.49.49,0,0,0,6,12.28v-.49h5.76v.49a.49.49,0,0,0,.49.48h.48a.49.49,0,0,0,.48-.48V8.43Z"/><path d="M8.91,0a8.92,8.92,0,0,1,6.77,14.71l.37.37h1.09L24,21.94l-2,2-6.86-6.85V16.05l-.37-.37A8.91,8.91,0,1,1,8.91,0m0,2.74a6.17,6.17,0,1,0,6.17,6.17A6.14,6.14,0,0,0,8.91,2.74Z"/></svg>